<svg xmlns="http://www.w3.org/2000/svg" xmlns:xlink="http://www.w3.org/1999/xlink" contentStyleType="text/css" data-diagram-type="CLASS" height="382px" preserveAspectRatio="none" style="width:331px;height:382px;background:#FFFFFF;" version="1.1" viewBox="0 0 331 382" width="331px" zoomAndPan="magnify"><defs/><g><!--class User--><g class="entity" data-entity="User" data-source-line="1" data-uid="ent0002" id="entity_User"><rect fill="#F1F1F1" height="113.1875" rx="2.5" ry="2.5" style="stroke:#181818;stroke-width:0.5;" width="149.3818" x="7" y="262.37"/><ellipse cx="61.4858" cy="278.37" fill="#ADD1B2" rx="11" ry="11" style="stroke:#181818;stroke-width:1;"/><path d="M65.5952,284.37 L57.8765,284.37 L57.8765,271.9794 L65.5952,271.9794 L65.5952,274.1356 L60.3296,274.1356 L60.3296,276.8075 L65.0952,276.8075 L65.0952,278.9638 L60.3296,278.9638 L60.3296,282.2138 L65.5952,282.2138 L65.5952,284.37 Z " fill="#000000"/><text fill="#000000" font-family="sans-serif" font-size="14" lengthAdjust="spacing" textLength="31.9102" x="81.9858" y="283.2167">User</text><line style="stroke:#181818;stroke-width:0.5;" x1="8" x2="155.3818" y1="294.37" y2="294.37"/><ellipse cx="18" cy="308.0184" fill="#000000" rx="3" ry="3" style="stroke:#000000;stroke-width:1;"/><text fill="#000000" font-family="sans-serif" font-size="14" lengthAdjust="spacing" textLength="44.6455" x="27" y="311.3651">id : int</text><line style="stroke:#181818;stroke-width:1;" x1="8" x2="155.3818" y1="318.6669" y2="318.6669"/><text fill="#000000" font-family="sans-serif" font-size="14" lengthAdjust="spacing" textLength="137.3818" x="13" y="335.662">username : varchar</text><text fill="#000000" font-family="sans-serif" font-size="14" lengthAdjust="spacing" textLength="105.752" x="13" y="351.9589">email : varchar</text><text fill="#000000" font-family="sans-serif" font-size="14" lengthAdjust="spacing" textLength="133.8545" x="13" y="368.2557">password : varchar</text></g><!--class Tipo--><g class="entity" data-entity="Tipo" data-source-line="9" data-uid="ent0003" id="entity_Tipo"><rect fill="#F1F1F1" height="113.1875" rx="2.5" ry="2.5" style="stroke:#181818;stroke-width:0.5;" width="133.4746" x="190.95" y="262.37"/><ellipse cx="238.4905" cy="278.37" fill="#ADD1B2" rx="11" ry="11" style="stroke:#181818;stroke-width:1;"/><path d="M242.5999,284.37 L234.8812,284.37 L234.8812,271.9794 L242.5999,271.9794 L242.5999,274.1356 L237.3343,274.1356 L237.3343,276.8075 L242.0999,276.8075 L242.0999,278.9638 L237.3343,278.9638 L237.3343,282.2138 L242.5999,282.2138 L242.5999,284.37 Z " fill="#000000"/><text fill="#000000" font-family="sans-serif" font-size="14" lengthAdjust="spacing" textLength="29.8936" x="258.9905" y="283.2167">Tipo</text><line style="stroke:#181818;stroke-width:0.5;" x1="191.95" x2="323.4246" y1="294.37" y2="294.37"/><ellipse cx="201.95" cy="308.0184" fill="#000000" rx="3" ry="3" style="stroke:#000000;stroke-width:1;"/><text fill="#000000" font-family="sans-serif" font-size="14" lengthAdjust="spacing" textLength="44.6455" x="210.95" y="311.3651">id : int</text><line style="stroke:#181818;stroke-width:1;" x1="191.95" x2="323.4246" y1="318.6669" y2="318.6669"/><text fill="#000000" font-family="sans-serif" font-size="14" lengthAdjust="spacing" textLength="121.4746" x="196.95" y="335.662">nombre : varchar</text><text fill="#000000" font-family="sans-serif" font-size="14" lengthAdjust="spacing" textLength="113.6338" x="196.95" y="351.9589">codigo : varchar</text><text fill="#000000" font-family="sans-serif" font-size="14" lengthAdjust="spacing" textLength="101.6162" x="196.95" y="368.2557">color : varchar</text></g><!--class Palabra--><g class="entity" data-entity="Palabra" data-source-line="17" data-uid="ent0004" id="entity_Palabra"><rect fill="#F1F1F1" height="178.375" rx="2.5" ry="2.5" style="stroke:#181818;stroke-width:0.5;" width="153.4492" x="92.97" y="7"/><ellipse cx="139.0887" cy="23" fill="#ADD1B2" rx="11" ry="11" style="stroke:#181818;stroke-width:1;"/><path d="M143.198,29 L135.4793,29 L135.4793,16.6094 L143.198,16.6094 L143.198,18.7656 L137.9324,18.7656 L137.9324,21.4375 L142.698,21.4375 L142.698,23.5938 L137.9324,23.5938 L137.9324,26.8438 L143.198,26.8438 L143.198,29 Z " fill="#000000"/><text fill="#000000" font-family="sans-serif" font-size="14" lengthAdjust="spacing" textLength="52.7119" x="159.5887" y="27.8467">Palabra</text><line style="stroke:#181818;stroke-width:0.5;" x1="93.97" x2="245.4192" y1="39" y2="39"/><ellipse cx="103.97" cy="52.6484" fill="#000000" rx="3" ry="3" style="stroke:#000000;stroke-width:1;"/><text fill="#000000" font-family="sans-serif" font-size="14" lengthAdjust="spacing" textLength="44.6455" x="112.97" y="55.9951">id : int</text><line style="stroke:#181818;stroke-width:1;" x1="93.97" x2="245.4192" y1="63.2969" y2="63.2969"/><text fill="#000000" font-family="sans-serif" font-size="14" lengthAdjust="spacing" textLength="120.2988" x="98.97" y="80.292">palabra : varchar</text><text fill="#000000" font-family="sans-serif" font-size="14" lengthAdjust="spacing" textLength="109.8398" x="98.97" y="96.5889">pinyin : varchar</text><text fill="#000000" font-family="sans-serif" font-size="14" lengthAdjust="spacing" textLength="141.4492" x="98.97" y="112.8857">traduccion : varchar</text><text fill="#000000" font-family="sans-serif" font-size="14" lengthAdjust="spacing" textLength="78.4766" x="98.97" y="129.1826">tipo_id : int</text><text fill="#000000" font-family="sans-serif" font-size="14" lengthAdjust="spacing" textLength="133.9844" x="98.97" y="145.4795">nivel_hsk : smallint</text><text fill="#000000" font-family="sans-serif" font-size="14" lengthAdjust="spacing" textLength="97.5898" x="98.97" y="161.7764">ejemplo : text</text><text fill="#000000" font-family="sans-serif" font-size="14" lengthAdjust="spacing" textLength="103.4756" x="98.97" y="178.0732">usuario_id : int</text></g><!--link Palabra to User--><g class="link" data-entity-1="Palabra" data-entity-2="User" data-source-line="30" data-uid="lnk5" id="link_Palabra_User"><path codeLine="30" d="M127.7417,202.4293 C117.4517,228.2293 116.1406,231.528 106.9106,254.698" fill="none" id="Palabra-User" style="stroke:#181818;stroke-width:1;"/><line style="stroke:#181818;stroke-width:1;" x1="131.4463" x2="128.8369" y1="193.1408" y2="183.4872"/><line style="stroke:#181818;stroke-width:1;" x1="131.4463" x2="139.9831" y1="193.1408" y2="187.9328"/><line style="stroke:#181818;stroke-width:1;" x1="131.4463" x2="134.41" y1="193.1408" y2="185.71"/><ellipse cx="129.2236" cy="198.7139" fill="none" rx="4" ry="4" style="stroke:#181818;stroke-width:1;"/><line style="stroke:#181818;stroke-width:1;" x1="109.1463" x2="101.7143" y1="259.8943" y2="256.9337"/><line style="stroke:#181818;stroke-width:1;" x1="110.2565" x2="102.8245" y1="257.1073" y2="254.1467"/><line style="stroke:#181818;stroke-width:1;" x1="106.9106" x2="103.95" y1="254.698" y2="262.13"/><text fill="#000000" font-family="sans-serif" font-size="13" lengthAdjust="spacing" textLength="66.4917" x="121.69" y="228.4369">usuario_id</text></g><!--link Palabra to Tipo--><g class="link" data-entity-1="Palabra" data-entity-2="Tipo" data-source-line="31" data-uid="lnk6" id="link_Palabra_Tipo"><path codeLine="31" d="M211.6427,202.4315 C221.9227,228.2315 223.2394,231.528 232.4694,254.698" fill="none" id="Palabra-Tipo" style="stroke:#181818;stroke-width:1;"/><line style="stroke:#181818;stroke-width:1;" x1="207.9412" x2="199.4062" y1="193.1418" y2="187.9309"/><line style="stroke:#181818;stroke-width:1;" x1="207.9412" x2="210.5538" y1="193.1418" y2="183.4891"/><line style="stroke:#181818;stroke-width:1;" x1="207.9412" x2="204.98" y1="193.1418" y2="185.71"/><ellipse cx="210.1621" cy="198.7156" fill="none" rx="4" ry="4" style="stroke:#181818;stroke-width:1;"/><line style="stroke:#181818;stroke-width:1;" x1="237.6657" x2="230.2337" y1="256.9337" y2="259.8943"/><line style="stroke:#181818;stroke-width:1;" x1="236.5555" x2="229.1235" y1="254.1467" y2="257.1073"/><line style="stroke:#181818;stroke-width:1;" x1="232.4694" x2="235.43" y1="254.698" y2="262.13"/><text fill="#000000" font-family="sans-serif" font-size="13" lengthAdjust="spacing" textLength="43.2783" x="221.69" y="228.4369">tipo_id</text></g><!--SRC=[TP5DYiCm34RtEOLsXK8ka5EKChCkYYCcwjXMa9t-CCrXUeOvGYzMjPb24gORWv_anoUPOkPyXiz42Zy5m1guWGeuPhkKfHszbI86Cdf0TIsgGGh8VaOwJEaesapWK1GqwZ-uapVwAA7MkTn9mr-oG5xqN_K6FTQAR-pTNtMMbEEPumnbnQPtZcM1BVPkeeny8BzhqxUH5D3x4TEUGkSVWJETydDbFIfFdbhS5Mp9e-FRRqnWsMrcJ91lrrem5Qyf1YdBosNyZchYMJOy5rgz0ju1]--></g></svg>