<svg xmlns="http://www.w3.org/2000/svg" xmlns:xlink="http://www.w3.org/1999/xlink" contentStyleType="text/css" data-diagram-type="CLASS" height="447px" preserveAspectRatio="none" style="width:899px;height:447px;background:#FFFFFF;" version="1.1" viewBox="0 0 899 447" width="899px" zoomAndPan="magnify"><defs/><g><!--class Usuario--><g class="entity" data-entity="Usuario" data-source-line="3" data-uid="ent0002" id="entity_Usuario"><rect fill="#F1F1F1" height="96.8906" rx="2.5" ry="2.5" style="stroke:#181818;stroke-width:0.5;" width="145.5947" x="746.76" y="7"/><ellipse cx="788.9358" cy="23" fill="#ADD1B2" rx="11" ry="11" style="stroke:#181818;stroke-width:1;"/><path d="M791.9045,28.6406 Q791.3264,28.9375 790.6858,29.0781 Q790.0452,29.2344 789.342,29.2344 Q786.842,29.2344 785.5139,27.5938 Q784.2014,25.9375 784.2014,22.8125 Q784.2014,19.6875 785.5139,18.0313 Q786.842,16.375 789.342,16.375 Q790.0452,16.375 790.6858,16.5313 Q791.342,16.6875 791.9045,16.9844 L791.9045,19.7031 Q791.2795,19.125 790.6858,18.8594 Q790.092,18.5781 789.467,18.5781 Q788.1233,18.5781 787.4358,19.6563 Q786.7483,20.7188 786.7483,22.8125 Q786.7483,24.9063 787.4358,25.9844 Q788.1233,27.0469 789.467,27.0469 Q790.092,27.0469 790.6858,26.7813 Q791.2795,26.5 791.9045,25.9219 L791.9045,28.6406 Z " fill="#000000"/><text fill="#000000" font-family="sans-serif" font-size="14" lengthAdjust="spacing" textLength="53.2041" x="808.9748" y="27.8467">Usuario</text><line style="stroke:#181818;stroke-width:0.5;" x1="747.76" x2="891.3547" y1="39" y2="39"/><ellipse cx="757.76" cy="52.6484" fill="none" rx="3" ry="3" style="stroke:#038048;stroke-width:1;"/><text fill="#000000" font-family="sans-serif" font-size="14" lengthAdjust="spacing" textLength="119.5947" x="766.76" y="55.9951">username: string</text><ellipse cx="757.76" cy="68.9453" fill="none" rx="3" ry="3" style="stroke:#038048;stroke-width:1;"/><text fill="#000000" font-family="sans-serif" font-size="14" lengthAdjust="spacing" textLength="87.9648" x="766.76" y="72.292">email: string</text><ellipse cx="757.76" cy="85.2422" fill="none" rx="3" ry="3" style="stroke:#038048;stroke-width:1;"/><text fill="#000000" font-family="sans-serif" font-size="14" lengthAdjust="spacing" textLength="116.0674" x="766.76" y="88.5889">password: string</text><line style="stroke:#181818;stroke-width:0.5;" x1="747.76" x2="891.3547" y1="95.8906" y2="95.8906"/></g><!--class Vocabulario--><g class="entity" data-entity="Vocabulario" data-source-line="9" data-uid="ent0003" id="entity_Vocabulario"><rect fill="#F1F1F1" height="259.8594" rx="2.5" ry="2.5" style="stroke:#181818;stroke-width:0.5;" width="203.7275" x="398.7" y="180.89"/><ellipse cx="454.8846" cy="196.89" fill="#ADD1B2" rx="11" ry="11" style="stroke:#181818;stroke-width:1;"/><path d="M457.8533,202.5306 Q457.2752,202.8275 456.6346,202.9681 Q455.9939,203.1244 455.2908,203.1244 Q452.7908,203.1244 451.4627,201.4838 Q450.1502,199.8275 450.1502,196.7025 Q450.1502,193.5775 451.4627,191.9213 Q452.7908,190.265 455.2908,190.265 Q455.9939,190.265 456.6346,190.4213 Q457.2908,190.5775 457.8533,190.8744 L457.8533,193.5931 Q457.2283,193.015 456.6346,192.7494 Q456.0408,192.4681 455.4158,192.4681 Q454.0721,192.4681 453.3846,193.5463 Q452.6971,194.6088 452.6971,196.7025 Q452.6971,198.7963 453.3846,199.8744 Q454.0721,200.9369 455.4158,200.9369 Q456.0408,200.9369 456.6346,200.6713 Q457.2283,200.39 457.8533,199.8119 L457.8533,202.5306 Z " fill="#000000"/><text fill="#000000" font-family="sans-serif" font-size="14" lengthAdjust="spacing" textLength="82.8584" x="475.3846" y="201.7367">Vocabulario</text><line style="stroke:#181818;stroke-width:0.5;" x1="399.7" x2="601.4275" y1="212.89" y2="212.89"/><ellipse cx="409.7" cy="226.5384" fill="none" rx="3" ry="3" style="stroke:#038048;stroke-width:1;"/><text fill="#000000" font-family="sans-serif" font-size="14" lengthAdjust="spacing" textLength="40.1953" x="418.7" y="229.8851">id: int</text><ellipse cx="409.7" cy="242.8353" fill="none" rx="3" ry="3" style="stroke:#038048;stroke-width:1;"/><text fill="#000000" font-family="sans-serif" font-size="14" lengthAdjust="spacing" textLength="102.5117" x="418.7" y="246.182">palabra: string</text><ellipse cx="409.7" cy="259.1322" fill="none" rx="3" ry="3" style="stroke:#038048;stroke-width:1;"/><text fill="#000000" font-family="sans-serif" font-size="14" lengthAdjust="spacing" textLength="92.0527" x="418.7" y="262.4789">pinyin: string</text><ellipse cx="409.7" cy="275.4291" fill="none" rx="3" ry="3" style="stroke:#038048;stroke-width:1;"/><text fill="#000000" font-family="sans-serif" font-size="14" lengthAdjust="spacing" textLength="123.6621" x="418.7" y="278.7757">traduccion: string</text><ellipse cx="409.7" cy="291.7259" fill="none" rx="3" ry="3" style="stroke:#038048;stroke-width:1;"/><text fill="#000000" font-family="sans-serif" font-size="14" lengthAdjust="spacing" textLength="76.1865" x="418.7" y="295.0726">tipo: string</text><ellipse cx="409.7" cy="308.0228" fill="none" rx="3" ry="3" style="stroke:#038048;stroke-width:1;"/><text fill="#000000" font-family="sans-serif" font-size="14" lengthAdjust="spacing" textLength="92.2441" x="418.7" y="311.3695">nivel_hsk: int</text><ellipse cx="409.7" cy="324.3197" fill="none" rx="3" ry="3" style="stroke:#038048;stroke-width:1;"/><text fill="#000000" font-family="sans-serif" font-size="14" lengthAdjust="spacing" textLength="93.1396" x="418.7" y="327.6664">ejemplo: text</text><ellipse cx="409.7" cy="340.6166" fill="none" rx="3" ry="3" style="stroke:#038048;stroke-width:1;"/><text fill="#000000" font-family="sans-serif" font-size="14" lengthAdjust="spacing" textLength="115.4111" x="418.7" y="343.9632">categoria: string</text><ellipse cx="409.7" cy="356.9134" fill="none" rx="3" ry="3" style="stroke:#038048;stroke-width:1;"/><text fill="#000000" font-family="sans-serif" font-size="14" lengthAdjust="spacing" textLength="177.7275" x="418.7" y="360.2601">fecha_creacion: datetime</text><ellipse cx="409.7" cy="373.2103" fill="none" rx="3" ry="3" style="stroke:#038048;stroke-width:1;"/><text fill="#000000" font-family="sans-serif" font-size="14" lengthAdjust="spacing" textLength="96.7832" x="418.7" y="376.557">estado: string</text><ellipse cx="409.7" cy="389.5072" fill="none" rx="3" ry="3" style="stroke:#038048;stroke-width:1;"/><text fill="#000000" font-family="sans-serif" font-size="14" lengthAdjust="spacing" textLength="75.8447" x="418.7" y="392.8539">notas: text</text><ellipse cx="409.7" cy="405.8041" fill="none" rx="3" ry="3" style="stroke:#038048;stroke-width:1;"/><text fill="#000000" font-family="sans-serif" font-size="14" lengthAdjust="spacing" textLength="94.7461" x="418.7" y="409.1507">fuente: string</text><ellipse cx="409.7" cy="422.1009" fill="none" rx="3" ry="3" style="stroke:#038048;stroke-width:1;"/><text fill="#000000" font-family="sans-serif" font-size="14" lengthAdjust="spacing" textLength="135.8848" x="418.7" y="425.4476">usuario: FK Usuario</text><line style="stroke:#181818;stroke-width:0.5;" x1="399.7" x2="601.4275" y1="432.7494" y2="432.7494"/></g><!--class ChatView--><g class="entity" data-entity="ChatView" data-source-line="25" data-uid="ent0004" id="entity_ChatView"><rect fill="#F1F1F1" height="64.2969" rx="2.5" ry="2.5" style="stroke:#181818;stroke-width:0.5;" width="160.3262" x="68.4" y="23.3"/><ellipse cx="111.3356" cy="39.3" fill="#ADD1B2" rx="11" ry="11" style="stroke:#181818;stroke-width:1;"/><path d="M114.3043,44.9406 Q113.7262,45.2375 113.0856,45.3781 Q112.445,45.5344 111.7418,45.5344 Q109.2418,45.5344 107.9137,43.8938 Q106.6012,42.2375 106.6012,39.1125 Q106.6012,35.9875 107.9137,34.3313 Q109.2418,32.675 111.7418,32.675 Q112.445,32.675 113.0856,32.8313 Q113.7418,32.9875 114.3043,33.2844 L114.3043,36.0031 Q113.6793,35.425 113.0856,35.1594 Q112.4918,34.8781 111.8668,34.8781 Q110.5231,34.8781 109.8356,35.9563 Q109.1481,37.0188 109.1481,39.1125 Q109.1481,41.2063 109.8356,42.2844 Q110.5231,43.3469 111.8668,43.3469 Q112.4918,43.3469 113.0856,43.0813 Q113.6793,42.8 114.3043,42.2219 L114.3043,44.9406 Z " fill="#000000"/><text fill="#000000" font-family="sans-serif" font-size="14" lengthAdjust="spacing" textLength="66.2471" x="131.5435" y="44.1467">ChatView</text><line style="stroke:#181818;stroke-width:0.5;" x1="69.4" x2="227.7262" y1="55.3" y2="55.3"/><line style="stroke:#181818;stroke-width:0.5;" x1="69.4" x2="227.7262" y1="63.3" y2="63.3"/><ellipse cx="79.4" cy="76.9484" fill="#84BE84" rx="3" ry="3" style="stroke:#038048;stroke-width:1;"/><text fill="#000000" font-family="sans-serif" font-size="14" lengthAdjust="spacing" textLength="134.3262" x="88.4" y="80.2951">chat_view(request)</text></g><!--class BaseView--><g class="entity" data-entity="BaseView" data-source-line="29" data-uid="ent0005" id="entity_BaseView"><rect fill="#F1F1F1" height="64.2969" rx="2.5" ry="2.5" style="stroke:#181818;stroke-width:0.5;" width="163.0605" x="267.03" y="23.3"/><ellipse cx="310.5778" cy="39.3" fill="#ADD1B2" rx="11" ry="11" style="stroke:#181818;stroke-width:1;"/><path d="M313.5465,44.9406 Q312.9684,45.2375 312.3278,45.3781 Q311.6871,45.5344 310.984,45.5344 Q308.484,45.5344 307.1559,43.8938 Q305.8434,42.2375 305.8434,39.1125 Q305.8434,35.9875 307.1559,34.3313 Q308.484,32.675 310.984,32.675 Q311.6871,32.675 312.3278,32.8313 Q312.984,32.9875 313.5465,33.2844 L313.5465,36.0031 Q312.9215,35.425 312.3278,35.1594 Q311.734,34.8781 311.109,34.8781 Q309.7653,34.8781 309.0778,35.9563 Q308.3903,37.0188 308.3903,39.1125 Q308.3903,41.2063 309.0778,42.2844 Q309.7653,43.3469 311.109,43.3469 Q311.734,43.3469 312.3278,43.0813 Q312.9215,42.8 313.5465,42.2219 L313.5465,44.9406 Z " fill="#000000"/><text fill="#000000" font-family="sans-serif" font-size="14" lengthAdjust="spacing" textLength="67.6211" x="330.9217" y="44.1467">BaseView</text><line style="stroke:#181818;stroke-width:0.5;" x1="268.03" x2="429.0905" y1="55.3" y2="55.3"/><line style="stroke:#181818;stroke-width:0.5;" x1="268.03" x2="429.0905" y1="63.3" y2="63.3"/><ellipse cx="278.03" cy="76.9484" fill="#84BE84" rx="3" ry="3" style="stroke:#038048;stroke-width:1;"/><text fill="#000000" font-family="sans-serif" font-size="14" lengthAdjust="spacing" textLength="137.0605" x="287.03" y="80.2951">base_view(request)</text></g><!--class IAService--><g class="entity" data-entity="IAService" data-source-line="33" data-uid="ent0006" id="entity_IAService"><rect fill="#F1F1F1" height="64.2969" rx="2.5" ry="2.5" style="stroke:#181818;stroke-width:0.5;" width="269.1201" x="7" y="278.67"/><ellipse cx="104.5864" cy="294.67" fill="#ADD1B2" rx="11" ry="11" style="stroke:#181818;stroke-width:1;"/><path d="M107.5552,300.3106 Q106.9771,300.6075 106.3364,300.7481 Q105.6958,300.9044 104.9927,300.9044 Q102.4927,300.9044 101.1646,299.2637 Q99.8521,297.6075 99.8521,294.4825 Q99.8521,291.3575 101.1646,289.7012 Q102.4927,288.045 104.9927,288.045 Q105.6958,288.045 106.3364,288.2012 Q106.9927,288.3575 107.5552,288.6544 L107.5552,291.3731 Q106.9302,290.795 106.3364,290.5294 Q105.7427,290.2481 105.1177,290.2481 Q103.7739,290.2481 103.0864,291.3262 Q102.3989,292.3887 102.3989,294.4825 Q102.3989,296.5762 103.0864,297.6544 Q103.7739,298.7169 105.1177,298.7169 Q105.7427,298.7169 106.3364,298.4512 Q106.9302,298.17 107.5552,297.5919 L107.5552,300.3106 Z " fill="#000000"/><text fill="#000000" font-family="sans-serif" font-size="14" lengthAdjust="spacing" textLength="65.4473" x="125.0864" y="299.5167">IAService</text><line style="stroke:#181818;stroke-width:0.5;" x1="8" x2="275.1201" y1="310.67" y2="310.67"/><line style="stroke:#181818;stroke-width:0.5;" x1="8" x2="275.1201" y1="318.67" y2="318.67"/><ellipse cx="18" cy="332.3184" fill="#84BE84" rx="3" ry="3" style="stroke:#038048;stroke-width:1;"/><text fill="#000000" font-family="sans-serif" font-size="14" lengthAdjust="spacing" textLength="243.1201" x="27" y="335.6651">ai_message(user_message): string</text></g><!--class Exportador--><g class="entity" data-entity="Exportador" data-source-line="37" data-uid="ent0007" id="entity_Exportador"><rect fill="#F1F1F1" height="80.5938" rx="2.5" ry="2.5" style="stroke:#181818;stroke-width:0.5;" width="246.7871" x="465.17" y="15.15"/><ellipse cx="545.5059" cy="31.15" fill="#ADD1B2" rx="11" ry="11" style="stroke:#181818;stroke-width:1;"/><path d="M548.4747,36.7906 Q547.8966,37.0875 547.2559,37.2281 Q546.6153,37.3844 545.9122,37.3844 Q543.4122,37.3844 542.0841,35.7437 Q540.7716,34.0875 540.7716,30.9625 Q540.7716,27.8375 542.0841,26.1812 Q543.4122,24.525 545.9122,24.525 Q546.6153,24.525 547.2559,24.6812 Q547.9122,24.8375 548.4747,25.1344 L548.4747,27.8531 Q547.8497,27.275 547.2559,27.0094 Q546.6622,26.7281 546.0372,26.7281 Q544.6934,26.7281 544.0059,27.8062 Q543.3184,28.8687 543.3184,30.9625 Q543.3184,33.0562 544.0059,34.1344 Q544.6934,35.1969 546.0372,35.1969 Q546.6622,35.1969 547.2559,34.9312 Q547.8497,34.65 548.4747,34.0719 L548.4747,36.7906 Z " fill="#000000"/><text fill="#000000" font-family="sans-serif" font-size="14" lengthAdjust="spacing" textLength="77.6152" x="566.0059" y="35.9967">Exportador</text><line style="stroke:#181818;stroke-width:0.5;" x1="466.17" x2="710.9571" y1="47.15" y2="47.15"/><line style="stroke:#181818;stroke-width:0.5;" x1="466.17" x2="710.9571" y1="55.15" y2="55.15"/><ellipse cx="476.17" cy="68.7984" fill="#84BE84" rx="3" ry="3" style="stroke:#038048;stroke-width:1;"/><text fill="#000000" font-family="sans-serif" font-size="14" lengthAdjust="spacing" textLength="215.7354" x="485.17" y="72.1451">exportar_pdf(vocabulario): File</text><ellipse cx="476.17" cy="85.0953" fill="#84BE84" rx="3" ry="3" style="stroke:#038048;stroke-width:1;"/><text fill="#000000" font-family="sans-serif" font-size="14" lengthAdjust="spacing" textLength="220.7871" x="485.17" y="88.442">exportar_xlsx(vocabulario): File</text></g><!--link Usuario to Vocabulario--><g class="link" data-entity-1="Usuario" data-entity-2="Vocabulario" data-source-line="42" data-uid="lnk8" id="link_Usuario_Vocabulario"><path codeLine="42" d="M759.56,104.1 C715.43,139.15 659.0885,183.9085 607.3385,225.0085" fill="none" id="Usuario-to-Vocabulario" style="stroke:#181818;stroke-width:1;"/><polygon fill="#181818" points="602.64,228.74,612.1754,226.275,606.5554,225.6304,607.2,220.0104,602.64,228.74" style="stroke:#181818;stroke-width:1;"/><text fill="#000000" font-family="sans-serif" font-size="13" lengthAdjust="spacing" textLength="8.271" x="742.5794" y="124.073">1</text><text fill="#000000" font-family="sans-serif" font-size="13" lengthAdjust="spacing" textLength="6.5" x="610.3749" y="219.2333">*</text></g><!--link ChatView to IAService--><g class="link" data-entity-1="ChatView" data-entity-2="IAService" data-source-line="43" data-uid="lnk9" id="link_ChatView_IAService"><path codeLine="43" d="M143.55,88.01 C141.57,102.02 139.53,118.74 138.56,133.89 C135.32,184.34 137.1867,237.0993 139.1467,272.3293" fill="none" id="ChatView-to-IAService" style="stroke:#181818;stroke-width:1;"/><polygon fill="#181818" points="139.48,278.32,142.9739,269.1117,139.2023,273.3277,134.9862,269.5561,139.48,278.32" style="stroke:#181818;stroke-width:1;"/><text fill="#000000" font-family="sans-serif" font-size="13" lengthAdjust="spacing" textLength="22.9785" x="139.56" y="146.9569">usa</text></g><!--link ChatView to Vocabulario--><g class="link" data-entity-1="ChatView" data-entity-2="Vocabulario" data-source-line="44" data-uid="lnk10" id="link_ChatView_Vocabulario"><path codeLine="44" d="M192.43,88.02 C243.66,124.9 325.2303,183.6148 393.5403,232.7848" fill="none" id="ChatView-to-Vocabulario" style="stroke:#181818;stroke-width:1;"/><polygon fill="#181818" points="398.41,236.29,393.4423,227.7858,394.352,233.369,388.7687,234.2786,398.41,236.29" style="stroke:#181818;stroke-width:1;"/><text fill="#000000" font-family="sans-serif" font-size="13" lengthAdjust="spacing" textLength="105.7139" x="273.56" y="146.9569">(posible acceso)</text></g><!--link BaseView to Vocabulario--><g class="link" data-entity-1="BaseView" data-entity-2="Vocabulario" data-source-line="45" data-uid="lnk11" id="link_BaseView_Vocabulario"><path codeLine="45" d="M367.5,88.02 C381.75,111.77 399.2137,140.8746 419.9137,175.3846" fill="none" id="BaseView-to-Vocabulario" style="stroke:#181818;stroke-width:1;"/><polygon fill="#181818" points="423,180.53,421.8008,170.7544,420.4281,176.2422,414.9403,174.8695,423,180.53" style="stroke:#181818;stroke-width:1;"/><text fill="#000000" font-family="sans-serif" font-size="13" lengthAdjust="spacing" textLength="105.7139" x="403.56" y="146.9569">(posible acceso)</text></g><!--link Exportador to Vocabulario--><g class="link" data-entity-1="Exportador" data-entity-2="Vocabulario" data-source-line="46" data-uid="lnk12" id="link_Exportador_Vocabulario"><path codeLine="46" d="M574.81,96.04 C566.79,119.14 558.129,144.0623 547.429,174.8623" fill="none" id="Exportador-to-Vocabulario" style="stroke:#181818;stroke-width:1;"/><polygon fill="#181818" points="545.46,180.53,552.192,173.3411,547.1008,175.8069,544.635,170.7158,545.46,180.53" style="stroke:#181818;stroke-width:1;"/><text fill="#000000" font-family="sans-serif" font-size="13" lengthAdjust="spacing" textLength="50.3052" x="560.56" y="146.9569">exporta</text></g><!--SRC=[ZL9DJuD04BtpAoPSf9eUl78miSP6qsDZhsHOfktemk9-K8pnlxiKOI7LnEDx- -RDpfkvWWU9XWmK2cgjMX9MmTDs0ojbeqZuDmClng5c1PyHm8qpf2iiAGLZDLU7ZgCIMKw9sfUTb2v6xclmsYc1kPF1Zxs8AzjNISmrpeou-k1gobYDXHE2rPpbMarnnGt9x6ZUHdDwfRAMNcIfFHC2BHsKvbc_FOaZPa8JzXqABx9Sqjd1M2pcNPH54nptZYex2yRroQMmtWmfXYWUZcXtJAS-1z_NPes7YQPtvtijWdBbDnIKkKT_AP_ljwGR5jHBaREIZC439TtU1h2utCjZMolTpQVxIkgnpkfYdpHXQRvqpP9cabQQzZUDDnzE9xwDORcyW_Wwdfv0D6RGFORFf-0CpX-dXvD2KYl3kIH08SYeHJH6z0_jPDPBzSzKtm00]--></g></svg>