<svg xmlns="http://www.w3.org/2000/svg" xmlns:xlink="http://www.w3.org/1999/xlink" contentStyleType="text/css" data-diagram-type="CLASS" height="891px" preserveAspectRatio="none" style="width:732px;height:891px;background:#FFFFFF;" version="1.1" viewBox="0 0 732 891" width="732px" zoomAndPan="magnify"><defs/><g><!--class User--><g class="entity" data-entity="User" data-source-line="2" data-uid="ent0002" id="entity_User"><rect fill="#F1F1F1" height="96.8906" rx="2.5" ry="2.5" style="stroke:#181818;stroke-width:0.5;" width="123.9453" x="401.49" y="787.83"/><ellipse cx="443.5058" cy="803.83" fill="#ADD1B2" rx="11" ry="11" style="stroke:#181818;stroke-width:1;"/><path d="M446.4746,809.4706 Q445.8964,809.7675 445.2558,809.9081 Q444.6152,810.0644 443.9121,810.0644 Q441.4121,810.0644 440.0839,808.4238 Q438.7714,806.7675 438.7714,803.6425 Q438.7714,800.5175 440.0839,798.8613 Q441.4121,797.205 443.9121,797.205 Q444.6152,797.205 445.2558,797.3613 Q445.9121,797.5175 446.4746,797.8144 L446.4746,800.5331 Q445.8496,799.955 445.2558,799.6894 Q444.6621,799.4081 444.0371,799.4081 Q442.6933,799.4081 442.0058,800.4863 Q441.3183,801.5488 441.3183,803.6425 Q441.3183,805.7363 442.0058,806.8144 Q442.6933,807.8769 444.0371,807.8769 Q444.6621,807.8769 445.2558,807.6113 Q445.8496,807.33 446.4746,806.7519 L446.4746,809.4706 Z " fill="#000000"/><text fill="#000000" font-family="sans-serif" font-size="14" lengthAdjust="spacing" textLength="31.9102" x="463.5093" y="808.6767">User</text><line style="stroke:#181818;stroke-width:0.5;" x1="402.49" x2="524.4353" y1="819.83" y2="819.83"/><ellipse cx="412.49" cy="833.4784" fill="none" rx="3" ry="3" style="stroke:#038048;stroke-width:1;"/><text fill="#000000" font-family="sans-serif" font-size="14" lengthAdjust="spacing" textLength="97.9453" x="421.49" y="836.8251">username: str</text><ellipse cx="412.49" cy="849.7753" fill="none" rx="3" ry="3" style="stroke:#038048;stroke-width:1;"/><text fill="#000000" font-family="sans-serif" font-size="14" lengthAdjust="spacing" textLength="66.3154" x="421.49" y="853.122">email: str</text><ellipse cx="412.49" cy="866.0722" fill="none" rx="3" ry="3" style="stroke:#038048;stroke-width:1;"/><text fill="#000000" font-family="sans-serif" font-size="14" lengthAdjust="spacing" textLength="94.418" x="421.49" y="869.4189">password: str</text><line style="stroke:#181818;stroke-width:0.5;" x1="402.49" x2="524.4353" y1="876.7206" y2="876.7206"/></g><!--class Tipo--><g class="entity" data-entity="Tipo" data-source-line="8" data-uid="ent0003" id="entity_Tipo"><rect fill="#F1F1F1" height="96.8906" rx="2.5" ry="2.5" style="stroke:#181818;stroke-width:0.5;" width="108.0381" x="96.45" y="787.83"/><ellipse cx="132.215" cy="803.83" fill="#ADD1B2" rx="11" ry="11" style="stroke:#181818;stroke-width:1;"/><path d="M135.1838,809.4706 Q134.6057,809.7675 133.965,809.9081 Q133.3244,810.0644 132.6213,810.0644 Q130.1213,810.0644 128.7932,808.4238 Q127.4807,806.7675 127.4807,803.6425 Q127.4807,800.5175 128.7932,798.8613 Q130.1213,797.205 132.6213,797.205 Q133.3244,797.205 133.965,797.3613 Q134.6213,797.5175 135.1838,797.8144 L135.1838,800.5331 Q134.5588,799.955 133.965,799.6894 Q133.3713,799.4081 132.7463,799.4081 Q131.4025,799.4081 130.715,800.4863 Q130.0275,801.5488 130.0275,803.6425 Q130.0275,805.7363 130.715,806.8144 Q131.4025,807.8769 132.7463,807.8769 Q133.3713,807.8769 133.965,807.6113 Q134.5588,807.33 135.1838,806.7519 L135.1838,809.4706 Z " fill="#000000"/><text fill="#000000" font-family="sans-serif" font-size="14" lengthAdjust="spacing" textLength="29.8936" x="150.8295" y="808.6767">Tipo</text><line style="stroke:#181818;stroke-width:0.5;" x1="97.45" x2="203.4881" y1="819.83" y2="819.83"/><ellipse cx="107.45" cy="833.4784" fill="none" rx="3" ry="3" style="stroke:#038048;stroke-width:1;"/><text fill="#000000" font-family="sans-serif" font-size="14" lengthAdjust="spacing" textLength="82.0381" x="116.45" y="836.8251">nombre: str</text><ellipse cx="107.45" cy="849.7753" fill="none" rx="3" ry="3" style="stroke:#038048;stroke-width:1;"/><text fill="#000000" font-family="sans-serif" font-size="14" lengthAdjust="spacing" textLength="74.1973" x="116.45" y="853.122">codigo: str</text><ellipse cx="107.45" cy="866.0722" fill="none" rx="3" ry="3" style="stroke:#038048;stroke-width:1;"/><text fill="#000000" font-family="sans-serif" font-size="14" lengthAdjust="spacing" textLength="62.1797" x="116.45" y="869.4189">color: str</text><line style="stroke:#181818;stroke-width:0.5;" x1="97.45" x2="203.4881" y1="876.7206" y2="876.7206"/></g><!--class Palabra--><g class="entity" data-entity="Palabra" data-source-line="14" data-uid="ent0004" id="entity_Palabra"><rect fill="#F1F1F1" height="162.0781" rx="2.5" ry="2.5" style="stroke:#181818;stroke-width:0.5;" width="128.0127" x="195.46" y="548.75"/><ellipse cx="229.9454" cy="564.75" fill="#ADD1B2" rx="11" ry="11" style="stroke:#181818;stroke-width:1;"/><path d="M232.9141,570.3906 Q232.336,570.6875 231.6954,570.8281 Q231.0547,570.9844 230.3516,570.9844 Q227.8516,570.9844 226.5235,569.3438 Q225.211,567.6875 225.211,564.5625 Q225.211,561.4375 226.5235,559.7813 Q227.8516,558.125 230.3516,558.125 Q231.0547,558.125 231.6954,558.2813 Q232.3516,558.4375 232.9141,558.7344 L232.9141,561.4531 Q232.2891,560.875 231.6954,560.6094 Q231.1016,560.3281 230.4766,560.3281 Q229.1329,560.3281 228.4454,561.4063 Q227.7579,562.4688 227.7579,564.5625 Q227.7579,566.6563 228.4454,567.7344 Q229.1329,568.7969 230.4766,568.7969 Q231.1016,568.7969 231.6954,568.5313 Q232.2891,568.25 232.9141,567.6719 L232.9141,570.3906 Z " fill="#000000"/><text fill="#000000" font-family="sans-serif" font-size="14" lengthAdjust="spacing" textLength="52.7119" x="248.2754" y="569.5967">Palabra</text><line style="stroke:#181818;stroke-width:0.5;" x1="196.46" x2="322.4727" y1="580.75" y2="580.75"/><ellipse cx="206.46" cy="594.3984" fill="none" rx="3" ry="3" style="stroke:#038048;stroke-width:1;"/><text fill="#000000" font-family="sans-serif" font-size="14" lengthAdjust="spacing" textLength="80.8623" x="215.46" y="597.7451">palabra: str</text><ellipse cx="206.46" cy="610.6953" fill="none" rx="3" ry="3" style="stroke:#038048;stroke-width:1;"/><text fill="#000000" font-family="sans-serif" font-size="14" lengthAdjust="spacing" textLength="70.4033" x="215.46" y="614.042">pinyin: str</text><ellipse cx="206.46" cy="626.9922" fill="none" rx="3" ry="3" style="stroke:#038048;stroke-width:1;"/><text fill="#000000" font-family="sans-serif" font-size="14" lengthAdjust="spacing" textLength="102.0127" x="215.46" y="630.3389">traduccion: str</text><ellipse cx="206.46" cy="643.2891" fill="none" rx="3" ry="3" style="stroke:#038048;stroke-width:1;"/><text fill="#000000" font-family="sans-serif" font-size="14" lengthAdjust="spacing" textLength="92.2441" x="215.46" y="646.6357">nivel_hsk: int</text><ellipse cx="206.46" cy="659.5859" fill="none" rx="3" ry="3" style="stroke:#038048;stroke-width:1;"/><text fill="#000000" font-family="sans-serif" font-size="14" lengthAdjust="spacing" textLength="83.8018" x="215.46" y="662.9326">ejemplo: str</text><ellipse cx="206.46" cy="675.8828" fill="none" rx="3" ry="3" style="stroke:#038048;stroke-width:1;"/><text fill="#000000" font-family="sans-serif" font-size="14" lengthAdjust="spacing" textLength="65.8916" x="215.46" y="679.2295">tipo: Tipo</text><ellipse cx="206.46" cy="692.1797" fill="none" rx="3" ry="3" style="stroke:#038048;stroke-width:1;"/><text fill="#000000" font-family="sans-serif" font-size="14" lengthAdjust="spacing" textLength="92.9072" x="215.46" y="695.5264">usuario: User</text><line style="stroke:#181818;stroke-width:0.5;" x1="196.46" x2="322.4727" y1="702.8281" y2="702.8281"/></g><!--class RegistroForm--><g class="entity" data-entity="RegistroForm" data-source-line="25" data-uid="ent0005" id="entity_RegistroForm"><rect fill="#F1F1F1" height="113.1875" rx="2.5" ry="2.5" style="stroke:#181818;stroke-width:0.5;" width="177.1016" x="547.91" y="405.56"/><ellipse cx="585.8007" cy="421.56" fill="#ADD1B2" rx="11" ry="11" style="stroke:#181818;stroke-width:1;"/><path d="M588.7694,427.2006 Q588.1913,427.4975 587.5507,427.6381 Q586.91,427.7944 586.2069,427.7944 Q583.7069,427.7944 582.3788,426.1538 Q581.0663,424.4975 581.0663,421.3725 Q581.0663,418.2475 582.3788,416.5913 Q583.7069,414.935 586.2069,414.935 Q586.91,414.935 587.5507,415.0913 Q588.2069,415.2475 588.7694,415.5444 L588.7694,418.2631 Q588.1444,417.685 587.5507,417.4194 Q586.9569,417.1381 586.3319,417.1381 Q584.9882,417.1381 584.3007,418.2163 Q583.6132,419.2788 583.6132,421.3725 Q583.6132,423.4663 584.3007,424.5444 Q584.9882,425.6069 586.3319,425.6069 Q586.9569,425.6069 587.5507,425.3413 Q588.1444,425.06 588.7694,424.4819 L588.7694,427.2006 Z " fill="#000000"/><text fill="#000000" font-family="sans-serif" font-size="14" lengthAdjust="spacing" textLength="94.2334" x="604.8875" y="426.4067">RegistroForm</text><line style="stroke:#181818;stroke-width:0.5;" x1="548.91" x2="724.0116" y1="437.56" y2="437.56"/><ellipse cx="558.91" cy="451.2084" fill="none" rx="3" ry="3" style="stroke:#038048;stroke-width:1;"/><text fill="#000000" font-family="sans-serif" font-size="14" lengthAdjust="spacing" textLength="151.1016" x="567.91" y="454.5551">password1: CharField</text><ellipse cx="558.91" cy="467.5053" fill="none" rx="3" ry="3" style="stroke:#038048;stroke-width:1;"/><text fill="#000000" font-family="sans-serif" font-size="14" lengthAdjust="spacing" textLength="151.1016" x="567.91" y="470.852">password2: CharField</text><line style="stroke:#181818;stroke-width:0.5;" x1="548.91" x2="724.0116" y1="478.1538" y2="478.1538"/><ellipse cx="558.91" cy="491.8022" fill="#84BE84" rx="3" ry="3" style="stroke:#038048;stroke-width:1;"/><text fill="#000000" font-family="sans-serif" font-size="14" lengthAdjust="spacing" textLength="131.1953" x="567.91" y="495.1489">clean_password2()</text><ellipse cx="558.91" cy="508.0991" fill="#84BE84" rx="3" ry="3" style="stroke:#038048;stroke-width:1;"/><text fill="#000000" font-family="sans-serif" font-size="14" lengthAdjust="spacing" textLength="43.6953" x="567.91" y="511.4457">save()</text></g><!--class LoginForm--><g class="entity" data-entity="LoginForm" data-source-line="32" data-uid="ent0006" id="entity_LoginForm"><rect fill="#F1F1F1" height="80.5938" rx="2.5" ry="2.5" style="stroke:#181818;stroke-width:0.5;" width="168.1943" x="310.37" y="421.86"/><ellipse cx="353.3456" cy="437.86" fill="#ADD1B2" rx="11" ry="11" style="stroke:#181818;stroke-width:1;"/><path d="M356.3143,443.5006 Q355.7362,443.7975 355.0956,443.9381 Q354.455,444.0944 353.7518,444.0944 Q351.2518,444.0944 349.9237,442.4538 Q348.6112,440.7975 348.6112,437.6725 Q348.6112,434.5475 349.9237,432.8913 Q351.2518,431.235 353.7518,431.235 Q354.455,431.235 355.0956,431.3913 Q355.7518,431.5475 356.3143,431.8444 L356.3143,434.5631 Q355.6893,433.985 355.0956,433.7194 Q354.5018,433.4381 353.8768,433.4381 Q352.5331,433.4381 351.8456,434.5163 Q351.1581,435.5788 351.1581,437.6725 Q351.1581,439.7663 351.8456,440.8444 Q352.5331,441.9069 353.8768,441.9069 Q354.5018,441.9069 355.0956,441.6413 Q355.6893,441.36 356.3143,440.7819 L356.3143,443.5006 Z " fill="#000000"/><text fill="#000000" font-family="sans-serif" font-size="14" lengthAdjust="spacing" textLength="74.0264" x="373.5624" y="442.7067">LoginForm</text><line style="stroke:#181818;stroke-width:0.5;" x1="311.37" x2="477.5643" y1="453.86" y2="453.86"/><ellipse cx="321.37" cy="467.5084" fill="none" rx="3" ry="3" style="stroke:#038048;stroke-width:1;"/><text fill="#000000" font-family="sans-serif" font-size="14" lengthAdjust="spacing" textLength="119.9502" x="330.37" y="470.8551">email: EmailField</text><ellipse cx="321.37" cy="483.8053" fill="none" rx="3" ry="3" style="stroke:#038048;stroke-width:1;"/><text fill="#000000" font-family="sans-serif" font-size="14" lengthAdjust="spacing" textLength="142.1943" x="330.37" y="487.152">password: CharField</text><line style="stroke:#181818;stroke-width:0.5;" x1="311.37" x2="477.5643" y1="494.4538" y2="494.4538"/></g><!--class PalabraForm--><g class="entity" data-entity="PalabraForm" data-source-line="37" data-uid="ent0007" id="entity_PalabraForm"><rect fill="#F1F1F1" height="145.7813" rx="2.5" ry="2.5" style="stroke:#181818;stroke-width:0.5;" width="120.7236" x="127.1" y="229.78"/><ellipse cx="142.1" cy="245.78" fill="#ADD1B2" rx="11" ry="11" style="stroke:#181818;stroke-width:1;"/><path d="M145.0688,251.4206 Q144.4906,251.7175 143.85,251.8581 Q143.2094,252.0144 142.5063,252.0144 Q140.0063,252.0144 138.6781,250.3737 Q137.3656,248.7175 137.3656,245.5925 Q137.3656,242.4675 138.6781,240.8112 Q140.0063,239.155 142.5063,239.155 Q143.2094,239.155 143.85,239.3112 Q144.5063,239.4675 145.0688,239.7644 L145.0688,242.4831 Q144.4438,241.905 143.85,241.6394 Q143.2563,241.3581 142.6313,241.3581 Q141.2875,241.3581 140.6,242.4362 Q139.9125,243.4987 139.9125,245.5925 Q139.9125,247.6862 140.6,248.7644 Q141.2875,249.8269 142.6313,249.8269 Q143.2563,249.8269 143.85,249.5612 Q144.4438,249.28 145.0688,248.7019 L145.0688,251.4206 Z " fill="#000000"/><text fill="#000000" font-family="sans-serif" font-size="14" lengthAdjust="spacing" textLength="88.7236" x="156.1" y="250.6267">PalabraForm</text><line style="stroke:#181818;stroke-width:0.5;" x1="128.1" x2="246.8236" y1="261.78" y2="261.78"/><ellipse cx="138.1" cy="275.4284" fill="none" rx="3" ry="3" style="stroke:#038048;stroke-width:1;"/><text fill="#000000" font-family="sans-serif" font-size="14" lengthAdjust="spacing" textLength="53.1563" x="147.1" y="278.7751">palabra</text><ellipse cx="138.1" cy="291.7253" fill="none" rx="3" ry="3" style="stroke:#038048;stroke-width:1;"/><text fill="#000000" font-family="sans-serif" font-size="14" lengthAdjust="spacing" textLength="42.6973" x="147.1" y="295.072">pinyin</text><ellipse cx="138.1" cy="308.0222" fill="none" rx="3" ry="3" style="stroke:#038048;stroke-width:1;"/><text fill="#000000" font-family="sans-serif" font-size="14" lengthAdjust="spacing" textLength="74.3066" x="147.1" y="311.3689">traduccion</text><ellipse cx="138.1" cy="324.3191" fill="none" rx="3" ry="3" style="stroke:#038048;stroke-width:1;"/><text fill="#000000" font-family="sans-serif" font-size="14" lengthAdjust="spacing" textLength="26.8311" x="147.1" y="327.6657">tipo</text><ellipse cx="138.1" cy="340.6159" fill="none" rx="3" ry="3" style="stroke:#038048;stroke-width:1;"/><text fill="#000000" font-family="sans-serif" font-size="14" lengthAdjust="spacing" textLength="64.8252" x="147.1" y="343.9626">nivel_hsk</text><ellipse cx="138.1" cy="356.9128" fill="none" rx="3" ry="3" style="stroke:#038048;stroke-width:1;"/><text fill="#000000" font-family="sans-serif" font-size="14" lengthAdjust="spacing" textLength="56.0957" x="147.1" y="360.2595">ejemplo</text><line style="stroke:#181818;stroke-width:0.5;" x1="128.1" x2="246.8236" y1="367.5613" y2="367.5613"/></g><!--class Views--><g class="entity" data-entity="Views" data-source-line="47" data-uid="ent0008" id="entity_Views"><rect fill="#F1F1F1" height="145.7813" rx="2.5" ry="2.5" style="stroke:#181818;stroke-width:0.5;" width="208.4033" x="251.26" y="7"/><ellipse cx="330.7996" cy="23" fill="#ADD1B2" rx="11" ry="11" style="stroke:#181818;stroke-width:1;"/><path d="M333.7683,28.6406 Q333.1902,28.9375 332.5496,29.0781 Q331.9089,29.2344 331.2058,29.2344 Q328.7058,29.2344 327.3777,27.5938 Q326.0652,25.9375 326.0652,22.8125 Q326.0652,19.6875 327.3777,18.0313 Q328.7058,16.375 331.2058,16.375 Q331.9089,16.375 332.5496,16.5313 Q333.2058,16.6875 333.7683,16.9844 L333.7683,19.7031 Q333.1433,19.125 332.5496,18.8594 Q331.9558,18.5781 331.3308,18.5781 Q329.9871,18.5781 329.2996,19.6563 Q328.6121,20.7188 328.6121,22.8125 Q328.6121,24.9063 329.2996,25.9844 Q329.9871,27.0469 331.3308,27.0469 Q331.9558,27.0469 332.5496,26.7813 Q333.1433,26.5 333.7683,25.9219 L333.7683,28.6406 Z " fill="#000000"/><text fill="#000000" font-family="sans-serif" font-size="14" lengthAdjust="spacing" textLength="40.8242" x="351.2996" y="27.8467">Views</text><line style="stroke:#181818;stroke-width:0.5;" x1="252.26" x2="458.6633" y1="39" y2="39"/><line style="stroke:#181818;stroke-width:0.5;" x1="252.26" x2="458.6633" y1="47" y2="47"/><ellipse cx="262.26" cy="60.6484" fill="#84BE84" rx="3" ry="3" style="stroke:#038048;stroke-width:1;"/><text fill="#000000" font-family="sans-serif" font-size="14" lengthAdjust="spacing" textLength="84.2666" x="271.26" y="63.9951">login_view()</text><ellipse cx="262.26" cy="76.9453" fill="#84BE84" rx="3" ry="3" style="stroke:#038048;stroke-width:1;"/><text fill="#000000" font-family="sans-serif" font-size="14" lengthAdjust="spacing" textLength="104.46" x="271.26" y="80.292">register_view()</text><ellipse cx="262.26" cy="93.2422" fill="#84BE84" rx="3" ry="3" style="stroke:#038048;stroke-width:1;"/><text fill="#000000" font-family="sans-serif" font-size="14" lengthAdjust="spacing" textLength="80.8008" x="271.26" y="96.5889">chat_view()</text><ellipse cx="262.26" cy="109.5391" fill="#84BE84" rx="3" ry="3" style="stroke:#038048;stroke-width:1;"/><text fill="#000000" font-family="sans-serif" font-size="14" lengthAdjust="spacing" textLength="103.3184" x="271.26" y="112.8857">palabra_view()</text><ellipse cx="262.26" cy="125.8359" fill="#84BE84" rx="3" ry="3" style="stroke:#038048;stroke-width:1;"/><text fill="#000000" font-family="sans-serif" font-size="14" lengthAdjust="spacing" textLength="172.6895" x="271.26" y="129.1826">mostrar_palabras_view()</text><ellipse cx="262.26" cy="142.1328" fill="#84BE84" rx="3" ry="3" style="stroke:#038048;stroke-width:1;"/><text fill="#000000" font-family="sans-serif" font-size="14" lengthAdjust="spacing" textLength="182.4033" x="271.26" y="145.4795">exportar_palabras_excel()</text></g><!--link Palabra to Tipo--><g class="link" data-entity-1="Palabra" data-entity-2="Tipo" data-source-line="57" data-uid="lnk9" id="link_Palabra_Tipo"><path codeLine="57" d="M216.54,711.31 C202.78,737.13 190.8143,759.5963 178.7143,782.2763" fill="none" id="Palabra-to-Tipo" style="stroke:#181818;stroke-width:1;"/><polygon fill="#181818" points="175.89,787.57,183.6555,781.5122,178.2435,783.1586,176.5972,777.7466,175.89,787.57" style="stroke:#181818;stroke-width:1;"/><text fill="#000000" font-family="sans-serif" font-size="13" lengthAdjust="spacing" textLength="16.0024" x="199.47" y="753.8969">FK</text></g><!--link Palabra to User--><g class="link" data-entity-1="Palabra" data-entity-2="User" data-source-line="58" data-uid="lnk10" id="link_Palabra_User"><path codeLine="58" d="M322.35,711.31 C335.99,727.27 350.75,743.5 365.47,757.83 C376.5,768.57 384.2883,775.5326 396.5183,785.4426" fill="none" id="Palabra-to-User" style="stroke:#181818;stroke-width:1;"/><polygon fill="#181818" points="401.18,789.22,396.7057,780.4461,397.2953,786.0722,391.6692,786.6617,401.18,789.22" style="stroke:#181818;stroke-width:1;"/><text fill="#000000" font-family="sans-serif" font-size="13" lengthAdjust="spacing" textLength="16.0024" x="366.47" y="753.8969">FK</text></g><!--link RegistroForm to User--><g class="link" data-entity-1="RegistroForm" data-entity-2="User" data-source-line="59" data-uid="lnk11" id="link_RegistroForm_User"><path codeLine="59" d="M627.68,519.06 C616.05,581.08 591.29,682.34 544.47,757.83 C538,768.25 533.9516,773.8692 525.2816,782.9992" fill="none" id="RegistroForm-to-User" style="stroke:#181818;stroke-width:1;"/><polygon fill="#181818" points="521.15,787.35,530.248,783.5782,524.593,783.7243,524.4469,778.0693,521.15,787.35" style="stroke:#181818;stroke-width:1;"/><text fill="#000000" font-family="sans-serif" font-size="13" lengthAdjust="spacing" textLength="28.4565" x="621.47" y="634.3569">crea</text></g><!--link LoginForm to User--><g class="link" data-entity-1="LoginForm" data-entity-2="User" data-source-line="60" data-uid="lnk12" id="link_LoginForm_User"><path codeLine="60" d="M401.78,502.63 C414.55,571.46 439.7364,707.2905 453.5064,781.5705" fill="none" id="LoginForm-to-User" style="stroke:#181818;stroke-width:1;"/><polygon fill="#181818" points="454.6,787.47,456.8925,777.8917,453.6886,782.5538,449.0265,779.3499,454.6,787.47" style="stroke:#181818;stroke-width:1;"/><text fill="#000000" font-family="sans-serif" font-size="13" lengthAdjust="spacing" textLength="39.1016" x="439.47" y="634.3569">valida</text></g><!--link PalabraForm to Palabra--><g class="link" data-entity-1="PalabraForm" data-entity-2="Palabra" data-source-line="61" data-uid="lnk13" id="link_PalabraForm_Palabra"><path codeLine="61" d="M194.5,375.59 C199.53,417.72 207.55,471.73 219.47,518.75 C221.94,528.5 223.0854,532.8971 226.3354,542.8371" fill="none" id="PalabraForm-to-Palabra" style="stroke:#181818;stroke-width:1;"/><polygon fill="#181818" points="228.2,548.54,229.205,538.7426,226.6461,543.7876,221.6011,541.2287,228.2,548.54" style="stroke:#181818;stroke-width:1;"/><text fill="#000000" font-family="sans-serif" font-size="13" lengthAdjust="spacing" textLength="40.479" x="220.47" y="466.7269">model</text></g><!--link Views to User--><g class="link" data-entity-1="Views" data-entity-2="User" data-source-line="62" data-uid="lnk14" id="link_Views_User"><path codeLine="62" d="M390.91,152.97 C420.66,217.43 461.16,315.39 479.47,405.56 C506.47,538.57 500.37,575.72 487.47,710.83 C485.03,736.35 481.097,758.5431 476.167,781.5531" fill="none" id="Views-to-User" style="stroke:#181818;stroke-width:1;"/><polygon fill="#181818" points="474.91,787.42,480.7067,779.4577,475.9575,782.531,472.8843,777.7817,474.91,787.42" style="stroke:#181818;stroke-width:1;"/><text fill="#000000" font-family="sans-serif" font-size="13" lengthAdjust="spacing" textLength="22.9785" x="497.47" y="466.7269">usa</text></g><!--link Views to Palabra--><g class="link" data-entity-1="Views" data-entity-2="Palabra" data-source-line="63" data-uid="lnk15" id="link_Views_Palabra"><path codeLine="63" d="M342.82,153.08 C324.89,255.37 293.2555,435.95 274.5855,542.51" fill="none" id="Views-to-Palabra" style="stroke:#181818;stroke-width:1;"/><polygon fill="#181818" points="273.55,548.42,279.0432,540.2453,274.4129,543.495,271.1632,538.8647,273.55,548.42" style="stroke:#181818;stroke-width:1;"/><text fill="#000000" font-family="sans-serif" font-size="13" lengthAdjust="spacing" textLength="22.9785" x="329.47" y="307.2369">usa</text></g><!--link Views to Tipo--><g class="link" data-entity-1="Views" data-entity-2="Tipo" data-source-line="64" data-uid="lnk16" id="link_Views_Tipo"><path codeLine="64" d="M250.95,115.81 C198.53,139.24 139.86,175.86 109.47,229.78 C6,413.35 87.0693,674.0587 128.4293,781.7787" fill="none" id="Views-to-Tipo" style="stroke:#181818;stroke-width:1;"/><polygon fill="#181818" points="130.58,787.38,131.0882,777.5443,128.7878,782.7122,123.6198,780.4118,130.58,787.38" style="stroke:#181818;stroke-width:1;"/><text fill="#000000" font-family="sans-serif" font-size="13" lengthAdjust="spacing" textLength="22.9785" x="64.47" y="466.7269">usa</text></g><!--link Views to RegistroForm--><g class="link" data-entity-1="Views" data-entity-2="RegistroForm" data-source-line="65" data-uid="lnk17" id="link_Views_RegistroForm"><path codeLine="65" d="M459.68,119.4 C490.49,135.06 521.95,155.93 544.47,182.78 C598.51,247.24 620.22,338.5379 629.45,399.3779" fill="none" id="Views-to-RegistroForm" style="stroke:#181818;stroke-width:1;"/><polygon fill="#181818" points="630.35,405.31,632.9548,395.8118,629.6,400.3666,625.0453,397.0118,630.35,405.31" style="stroke:#181818;stroke-width:1;"/><text fill="#000000" font-family="sans-serif" font-size="13" lengthAdjust="spacing" textLength="22.9785" x="555.47" y="195.8469">usa</text></g><!--link Views to LoginForm--><g class="link" data-entity-1="Views" data-entity-2="LoginForm" data-source-line="66" data-uid="lnk18" id="link_Views_LoginForm"><path codeLine="66" d="M362.85,152.86 C371.02,232.53 383.278,352.0913 389.788,415.5813" fill="none" id="Views-to-LoginForm" style="stroke:#181818;stroke-width:1;"/><polygon fill="#181818" points="390.4,421.55,393.4611,412.1889,389.89,416.5761,385.5029,413.0049,390.4,421.55" style="stroke:#181818;stroke-width:1;"/><text fill="#000000" font-family="sans-serif" font-size="13" lengthAdjust="spacing" textLength="22.9785" x="368.47" y="195.8469">usa</text></g><!--link Views to PalabraForm--><g class="link" data-entity-1="Views" data-entity-2="PalabraForm" data-source-line="67" data-uid="lnk19" id="link_Views_PalabraForm"><path codeLine="67" d="M291.17,153.2 C283.01,162.99 274.91,173.03 267.47,182.78 C256.21,197.51 248.1165,208.7802 237.4965,224.3802" fill="none" id="Views-to-PalabraForm" style="stroke:#181818;stroke-width:1;"/><polygon fill="#181818" points="234.12,229.34,242.4912,224.1513,236.9337,225.2068,235.8782,219.6493,234.12,229.34" style="stroke:#181818;stroke-width:1;"/><text fill="#000000" font-family="sans-serif" font-size="13" lengthAdjust="spacing" textLength="22.9785" x="268.47" y="195.8469">usa</text></g><!--SRC=[TLCnJiGm4Epp2dS7GXHGfg11N0D82C6rqPwpoXaSRxHESeSGh-89V0mxJc8dY2hU6QzdTknin2ELgCbcKeErujKYYyzCY8lEhGpKc0lRiWUm1gNdgd6xZyHb0BwoiVz5DHJw3TLxZjsIIbLHKchYLUyJQDWpXFOc555FcGzbvh9bA3if5KN8g1vrSR3lkL2c7Ho_OTteADewS_bWCGpO0Ii7-9czYutO4jUTzkYKnpDModMJPoPZOV2hNDmUWBSATPdYrojSQWHJpEpPkGSjzEXMy-WFL2aJDSQex_pdZq1w_ZgxrEO0nEYMgKrnB89BCWjvxDpiO0LKt3LGkfMaceHNn55tf_1eWwBsCnIz0yACF4I7d43o06rIZXuJf2ONDd0nCZQXyDGGjoc79uawfBXn5wL1gfzlOxFf7LrUteJtc8lj_G8TNlc0BkuteIGZPF5M4gO7hKh8qi0zEnsVYzh_K5a89kdhB2HWtBx4HxzBS65oJKQJ_sX4xXS0]--></g></svg>